<svg width="512" height="512" viewBox="0 0 512 512" fill="none" xmlns="http://www.w3.org/2000/svg">
<rect width="512" height="512" fill="#1460FF"/>
<path d="M469 251.891C469 368.916 373.861 463.783 256.5 463.783C220.707 463.783 186.98 454.958 157.389 439.373C145.631 433.179 96.3187 479.519 85.996 471.32C75.8404 463.254 104.649 400.678 96.1325 390.919C63.6609 353.709 44 305.09 44 251.891C44 134.867 139.139 40 256.5 40C373.861 40 469 134.867 469 251.891Z" fill="white"/>
<path d="M367.661 189.657C374.691 189.657 380.512 190.653 385.086 192.691L385.942 193.067C390.158 194.994 393.412 197.654 395.663 201.064L395.999 201.571C397.646 204.127 398.793 206.995 399.442 210.166C399.949 212.64 397.93 214.708 395.55 214.708H384.088C382.121 214.708 380.593 213.317 379.868 211.707C379.202 210.227 378.263 209.09 377.056 208.27L377.047 208.263L377.038 208.257C375.277 206.989 372.212 206.274 367.661 206.274C363.046 206.274 359.803 207.023 357.791 208.389C355.785 209.75 354.826 211.521 354.826 213.764C354.826 216.513 356.133 218.674 358.921 220.29L359.498 220.603C362.488 222.15 367.024 223.529 373.162 224.712H373.163C377.71 225.589 381.752 226.669 385.285 227.954H385.284C388.916 229.246 392.01 230.95 394.549 233.076L395.021 233.468C397.345 235.454 399.129 237.843 400.367 240.629C401.693 243.611 402.339 247.177 402.339 251.298C402.339 256.517 400.95 261.118 398.154 265.068C395.434 269.024 391.455 272.045 386.268 274.153L386.269 274.154C381.153 276.266 374.941 277.305 367.661 277.305C360.226 277.305 353.972 276.267 348.931 274.152C343.907 272.046 340.013 269.108 337.295 265.32L337.289 265.312L337.284 265.304C335.291 262.376 333.985 259.096 333.366 255.475C332.95 253.042 334.95 251.066 337.273 251.066H348.933C350.922 251.066 352.475 252.485 353.166 254.149C353.888 255.887 354.965 257.284 356.397 258.358H356.396C358.472 259.855 362.161 260.688 367.661 260.688C373.333 260.688 377.214 259.932 379.464 258.553C381.767 257.111 382.871 255.152 382.871 252.604C382.871 250.42 382.187 248.699 380.856 247.368L380.841 247.353C379.543 245.983 377.465 244.772 374.521 243.765L374.512 243.762L374.503 243.758C371.92 242.806 368.631 241.907 364.629 241.063L362.869 240.705C357.195 239.586 352.292 238.023 348.174 236.004C344.014 233.965 340.802 231.175 338.573 227.625L338.566 227.613V227.612C336.409 224.044 335.358 219.569 335.358 214.238C335.358 209.256 336.669 204.923 339.317 201.281C341.955 197.574 345.731 194.718 350.596 192.69C355.469 190.66 361.164 189.657 367.661 189.657Z" fill="#1460FF" stroke="#1460FF" stroke-width="1.65067"/>
<path d="M270.937 191.079C273.215 191.079 275.062 192.927 275.062 195.206V224.734L303.035 192.501C303.819 191.598 304.956 191.079 306.151 191.079H317.731C321.314 191.079 323.195 195.331 320.785 197.981L295.358 225.95L324.77 269.438C326.623 272.178 324.66 275.876 321.352 275.876H308.565C307.175 275.876 305.878 275.176 305.115 274.014L282.209 239.098L275.062 246.98V271.75C275.062 274.029 273.215 275.876 270.937 275.876H259.841C257.562 275.876 255.714 274.029 255.714 271.75V195.206C255.714 192.927 257.562 191.079 259.841 191.079H270.937Z" fill="#1460FF" stroke="#1460FF" stroke-width="1.65067"/>
<path d="M237.541 191.079C239.82 191.079 241.667 192.927 241.667 195.206V203.332C241.667 205.611 239.82 207.458 237.541 207.458H203.995C202.628 207.458 201.52 208.567 201.52 209.935V221.861C201.52 223.229 202.628 224.338 203.995 224.338H233.978C236.256 224.338 238.103 226.185 238.104 228.464V236.115C238.104 238.394 236.257 240.242 233.978 240.242H203.995C202.628 240.242 201.52 241.351 201.52 242.718V257.021C201.52 258.388 202.628 259.497 203.995 259.497H237.541C239.82 259.497 241.667 261.344 241.667 263.623V271.75C241.667 274.029 239.82 275.876 237.541 275.876H186.179C183.9 275.876 182.052 274.029 182.052 271.75V195.206C182.052 192.927 183.9 191.079 186.179 191.079H237.541Z" fill="#1460FF" stroke="#1460FF" stroke-width="1.65067"/>
<path d="M129.534 191.079C131.813 191.079 133.66 192.927 133.66 195.206V253.72C133.66 256.91 136.247 259.497 139.438 259.497H167.544C169.823 259.497 171.67 261.344 171.67 263.623V271.75C171.67 274.029 169.823 275.876 167.544 275.876H125.041C119.115 275.876 114.312 271.072 114.312 265.146V195.206C114.312 192.927 116.159 191.079 118.438 191.079H129.534Z" fill="#1460FF" stroke="#1460FF" stroke-width="1.65067"/>
<circle cx="224.945" cy="309.861" r="12.2981" fill="#1460FF"/>
<circle cx="258.325" cy="309.861" r="12.2981" fill="#1460FF"/>
<circle cx="291.706" cy="309.861" r="12.2981" fill="#1460FF"/>
</svg>
